# xmcd
#
# Track frame offsets:
#	150
#	15667
#	26990
#	39610
#	51972
#	63605
#	75345
#	89887
#	103612
#	116805
#	128432
#
# Disc length: 1915 seconds
#
# Revision: 7
# Processed by: cddbd v1.5.2PL0 Copyright (c) Steve Scherf et al.
# Submitted via: EasyCDDAExtractor 15.3.0.1
#
DISCID=9307790b
DTITLE=Cher - Greatest Hits
DYEAR=1974
DGENRE=Pop
TTITLE0=Dark Lady
TTITLE1=The Way Of Love
TTITLE2=Don't Hide Your Love
TTITLE3=Half Breed
TTITLE4=Train Of Thought
TTITLE5=Gypsys, Tramps and Thieves
TTITLE6=I Saw A Man And He Danced With His Wife
TTITLE7=Carousel Man
TTITLE8=Living In A House Divided
TTITLE9=Melody
TTITLE10=Dixie Girl
EXTD=0\n\n\n
EXTT0=
EXTT1=
EXTT2=
EXTT3=
EXTT4=
EXTT5=
EXTT6=
EXTT7=
EXTT8=
EXTT9=
EXTT10=
PLAYORDER=
